<svg width="71" height="71" viewBox="0 0 71 71" fill="none" xmlns="http://www.w3.org/2000/svg">
<path d="M35.4138 34.4707C40.6638 34.4707 44.7471 30.193 44.7471 24.943C44.7471 19.693 40.4693 15.6096 35.2193 15.6096C29.9693 15.6096 25.886 19.8874 25.886 24.943C25.886 30.193 30.1638 34.4707 35.4138 34.4707ZM35.2193 19.4985C35.4138 19.4985 35.4138 19.4985 35.2193 19.4985C38.3305 19.4985 40.8582 22.0263 40.8582 25.1374C40.8582 28.2485 38.3305 30.5818 35.2193 30.5818C32.1082 30.5818 29.7749 28.0541 29.7749 25.1374C29.7749 22.0263 32.3027 19.4985 35.2193 19.4985Z" fill="#50B848"/>
<path d="M64.1916 33.304C60.4971 29.9984 55.636 28.2484 50.5805 28.4429H49.0249C48.636 29.9984 48.0527 31.3595 47.2749 32.5262C48.4416 32.3317 49.4138 32.3317 50.5805 32.3317C54.2749 32.1373 57.9693 33.304 60.886 35.4429V49.4429H64.7749V33.8873L64.1916 33.304Z" fill="#50B848"/>
<path d="M46.1082 15.9984C47.0805 13.6651 49.8027 12.4984 52.3305 13.4706C54.6638 14.4429 55.8305 17.1651 54.8582 19.6929C54.0805 21.4429 52.3305 22.6095 50.5805 22.6095C50.1916 22.6095 49.6082 22.6095 49.2193 22.4151C49.4138 23.3873 49.4138 24.3595 49.4138 25.1373V26.304C49.8027 26.304 50.1916 26.4984 50.5805 26.4984C55.4416 26.4984 59.3305 22.6095 59.3305 17.9429C59.3305 13.0818 55.4416 9.19287 50.7749 9.19287C47.6638 9.19287 44.9416 10.7484 43.386 13.4706C44.3582 14.054 45.3305 14.8318 46.1082 15.9984Z" fill="#50B848"/>
<path d="M23.9416 32.7207C23.1638 31.554 22.5805 30.1929 22.1916 28.6373H20.636C15.5805 28.4429 10.7194 30.1929 7.02492 33.304L6.44159 33.8873V49.4429H10.3305V35.4429C13.4416 33.304 16.9416 32.1373 20.636 32.3318C21.8027 32.3318 22.9694 32.5262 23.9416 32.7207Z" fill="#50B848"/>
<path d="M20.636 26.304C21.0249 26.304 21.4138 26.304 21.8027 26.1096V24.9429C21.8027 23.9707 21.8027 22.9985 21.9971 22.2207C21.6083 22.4151 21.0249 22.4151 20.636 22.4151C18.1083 22.4151 15.9694 20.2762 15.9694 17.7485C15.9694 15.2207 18.1083 13.0818 20.636 13.0818C22.5805 13.0818 24.3305 14.2485 25.1083 15.9985C25.886 15.0262 27.0527 14.054 28.0249 13.2762C25.4972 9.19291 20.2471 7.8318 16.1638 10.3596C12.0805 12.8874 10.7194 18.1374 13.2472 22.2207C14.8027 24.7485 17.5249 26.304 20.636 26.304Z" fill="#50B848"/>
<path d="M51.3583 44.9707L50.9694 44.3873C47.0805 40.1095 41.636 37.5818 35.8027 37.7762C29.9694 37.5818 24.3305 40.1095 20.4416 44.3873L20.0527 44.9707V59.7484C20.0527 61.4984 21.4138 63.054 23.3583 63.054H48.2471C49.9971 63.054 51.5527 61.4984 51.5527 59.7484V44.9707H51.3583ZM47.4694 59.1651H23.9416V46.3318C27.0527 43.2207 31.3305 41.6651 35.8027 41.6651C40.0805 41.4707 44.3583 43.2207 47.4694 46.3318V59.1651Z" fill="#50B848"/>
</svg>
