<svg width="71" height="71" viewBox="0 0 71 71" fill="none" xmlns="http://www.w3.org/2000/svg">
<path d="M51.822 35.8318C51.8139 33.2172 51.5337 30.6106 50.9859 28.054H57.9859C57.6254 26.9876 57.1901 25.948 56.6832 24.9429H50.1693C48.9448 20.8519 47.0455 16.9942 44.5498 13.529C42.9553 12.8586 41.2928 12.3631 39.5915 12.0513C43.0105 15.7248 45.5912 20.0968 47.1554 24.8651H36.6748V11.7207H33.7582V24.8846H23.2776C24.845 20.1076 27.4325 15.7286 30.8609 12.0513C29.1669 12.3579 27.511 12.8469 25.922 13.5096C23.4165 16.9602 21.5042 20.8047 20.2637 24.8846H13.7109C13.1948 25.908 12.7529 26.9672 12.3887 28.054H19.447C18.8993 30.6106 18.6191 33.2172 18.6109 35.8318C18.6163 38.6917 18.9424 41.5419 19.5832 44.329H12.6998C13.1021 45.419 13.583 46.4782 14.1387 47.4985H20.4193C21.6097 51.2236 23.3745 54.7401 25.6498 57.9207C27.2792 58.6196 28.9814 59.1348 30.7248 59.4568C27.5513 55.9952 25.1107 51.9276 23.5498 47.4985H33.7776V59.8263H36.6943V47.4985H46.8832C45.3169 51.9294 42.8696 55.9973 39.6887 59.4568C41.4403 59.1237 43.1491 58.5954 44.7832 57.8818C47.0549 54.7131 48.8196 51.21 50.0137 47.4985H56.2359C56.7891 46.4971 57.27 45.4574 57.6748 44.3874H50.772C51.4433 41.5842 51.7956 38.7141 51.822 35.8318ZM33.7582 44.329H22.597C21.2281 38.9776 21.1681 33.3752 22.422 27.9957H33.7582V44.329ZM47.8359 44.329H36.6748V28.054H48.0109C48.5695 30.6085 48.8434 33.217 48.8276 35.8318C48.8434 38.694 48.5104 41.5474 47.8359 44.329Z" fill="#50B848"/>
<path d="M35.2165 4.7207C29.0633 4.7207 23.0483 6.54534 17.9321 9.96387C12.8159 13.3824 8.8283 18.2413 6.47357 23.9261C4.11885 29.6109 3.50274 35.8663 4.70317 41.9013C5.9036 47.9363 8.86665 53.4797 13.2176 57.8307C17.5686 62.1817 23.1121 65.1447 29.147 66.3451C35.182 67.5456 41.4374 66.9295 47.1222 64.5747C52.807 62.22 57.6659 58.2324 61.0844 53.1162C64.503 48 66.3276 41.985 66.3276 35.8318C66.3276 27.5806 63.0498 19.6674 57.2154 13.8329C51.3809 7.99847 43.4677 4.7207 35.2165 4.7207ZM35.2165 63.054C29.8324 63.054 24.5693 61.4575 20.0926 58.4663C15.616 55.475 12.1268 51.2235 10.0664 46.2493C8.00605 41.2751 7.46696 35.8016 8.51734 30.521C9.56771 25.2404 12.1604 20.3899 15.9675 16.5828C19.7746 12.7757 24.6251 10.183 29.9057 9.13266C35.1863 8.08228 40.6598 8.62138 45.634 10.6818C50.6082 12.7421 54.8597 16.2313 57.8509 20.708C60.8422 25.1846 62.4387 30.4478 62.4387 35.8318C62.4387 43.0516 59.5707 49.9757 54.4655 55.0808C49.3604 60.186 42.4363 63.054 35.2165 63.054Z" fill="#50B848"/>
</svg>
