<svg width="62" height="63" viewBox="0 0 62 63" fill="none" xmlns="http://www.w3.org/2000/svg">
<path d="M39.1285 40.9706C39.1285 40.9706 64.0497 22.9866 61.2854 2.40434C61.258 2.05483 61.1194 1.72326 60.89 1.45819C60.6352 1.22194 60.3079 1.07884 59.9615 1.05219C39.8487 -1.77567 22.2778 23.7245 22.2778 23.7245C7.03353 21.8993 8.14208 24.939 1.18717 41.6449C-0.143798 44.8293 2.01328 45.9273 4.37866 45.0305L11.962 42.1674L21.1058 51.5159L18.3061 59.2793C17.4306 61.7011 18.5003 63.9076 21.6177 62.5484C37.9423 55.4311 40.9149 56.5679 39.1285 40.9706ZM42.6907 20.0846C41.675 19.0351 41.1071 17.6317 41.1071 16.1712C41.1071 14.7106 41.675 13.3073 42.6907 12.2577C43.1873 11.7459 43.7816 11.339 44.4384 11.0611C45.0951 10.7833 45.801 10.6401 46.5141 10.6401C47.2273 10.6401 47.9331 10.7833 48.5899 11.0611C49.2467 11.339 49.841 11.7459 50.3376 12.2577C51.3533 13.3073 51.9211 14.7106 51.9211 16.1712C51.9211 17.6317 51.3533 19.0351 50.3376 20.0846C49.841 20.5965 49.2467 21.0034 48.5899 21.2812C47.9331 21.5591 47.2273 21.7023 46.5141 21.7023C45.801 21.7023 45.0951 21.5591 44.4384 21.2812C43.7816 21.0034 43.1873 20.5965 42.6907 20.0846Z" fill="#50B848"/>
</svg>
